<?xml version="1.0" standalone="no"?>
<!DOCTYPE svg PUBLIC "-//W3C//DTD SVG 20010904//EN"
 "http://www.w3.org/TR/2001/REC-SVG-20010904/DTD/svg10.dtd">
<svg version="1.0" xmlns="http://www.w3.org/2000/svg"
 width="120.000000pt" height="120.000000pt" viewBox="0 0 120.000000 120.000000"
 preserveAspectRatio="xMidYMid meet">
<metadata>
Created by potrace 1.14, written by Peter Selinger 2001-2017
</metadata>
<g transform="translate(0.000000,120.000000) scale(0.100000,-0.100000)"
fill="#000000" stroke="none">
<path d="M569 1078 c-20 -35 -141 -247 -271 -473 -129 -226 -240 -420 -246
-432 -12 -21 -11 -21 21 -11 17 6 90 24 162 40 240 55 441 174 459 271 5 31
-22 67 -51 67 -57 1 -170 22 -190 35 -18 12 -23 25 -23 56 0 82 73 169 210
249 41 24 77 45 80 47 4 4 -45 97 -90 171 l-26 42 -35 -62z"/>
<path d="M680 847 c-36 -17 -89 -55 -118 -83 -44 -42 -53 -57 -50 -80 4 -37
37 -54 111 -54 222 0 207 -201 -26 -340 -31 -19 -57 -37 -57 -41 0 -3 37 -6
83 -6 171 0 361 -28 492 -73 30 -10 55 -17 55 -15 0 2 -77 138 -171 302 -241
420 -243 423 -249 423 -3 -1 -34 -15 -70 -33z"/>
<path d="M450 200 c-139 -18 -330 -72 -364 -102 -6 -4 227 -8 518 -8 290 0
525 4 522 9 -10 15 -149 60 -251 81 -113 23 -325 33 -425 20z"/>
</g>
</svg>
