<?xml version="1.0" encoding="utf-8"?>
<!-- Generator: Adobe Illustrator 26.0.3, SVG Export Plug-In . SVG Version: 6.00 Build 0)  -->
<svg version="1.1" id="Layer_1" xmlns="http://www.w3.org/2000/svg" xmlns:xlink="http://www.w3.org/1999/xlink" x="0px" y="0px"
	 viewBox="0 0 50 50" style="enable-background:new 0 0 50 50;" xml:space="preserve">
<style type="text/css">
	.st0{fill:none;stroke:#4BF59A;stroke-width:2;stroke-linecap:square;stroke-miterlimit:10;}
	.st1{fill:none;stroke:#4BF59A;stroke-width:2;stroke-miterlimit:10;}
</style>
<g id="_x36_">
	<path class="st0" d="M24.66,42.54"/>
	<path class="st0" d="M22.66,46.79C21.73,47.55,20.54,48,19.24,48c-2.17,0-4.04-1.26-4.93-3.09c-0.34,0.07-0.69,0.1-1.05,0.1
		c-3.03,0-5.48-2.46-5.48-5.48c0-0.64,0.11-1.24,0.31-1.81c-2.27-0.67-3.93-2.77-3.93-5.26c0-1.12,0.34-2.16,0.91-3.02
		c0,0,1.3-2.03,3.84-1.66"/>
	<path class="st0" d="M24.66,7.51c0-3.03-2.4-5.51-5.42-5.51c-2.17,0-4.04,1.26-4.93,3.09c-0.34-0.07-0.69-0.1-1.05-0.1
		c-3.03,0-5.48,2.46-5.48,5.48c0,0.64,0.11,1.24,0.31,1.81c-2.27,0.67-3.93,2.77-3.93,5.26c0,1.12,0.34,2.16,0.91,3.02
		c-1.38,1-2.28,2.61-2.28,4.44c0,0.65,0.11,1.28,0.33,1.86"/>
	<path class="st1" d="M11.94,14.02c-1.09,0.19-2.54-0.06-3.99-1.82"/>
	<path class="st1" d="M12.42,30.49c1.37,0.37,3.13,0.17,3.96-2.72"/>
	<path class="st1" d="M14.31,44.88c0,0-0.38-1.78,0.21-3.43"/>
	<line class="st1" x1="5.07" y1="20.53" x2="7.81" y2="20.53"/>
	<line class="st1" x1="8.08" y1="37.69" x2="11.17" y2="36.07"/>
	<line class="st1" x1="14.31" y1="5.06" x2="15.33" y2="6.65"/>
	<path class="st0" d="M47.05,23.69c0.1,0.42,0.16,0.86,0.16,1.31c0,1.83-0.9,3.44-2.28,4.44c0.57,0.87,0.91,1.9,0.91,3.02
		c0,2.49-1.66,4.58-3.93,5.26c0.2,0.57,0.31,1.18,0.31,1.81c0,3.03-2.46,5.48-5.48,5.48c-0.36,0-0.71-0.04-1.05-0.1
		C34.8,46.74,32.93,48,30.76,48c-3.03,0-5.48-2.46-5.48-5.48l0,0l0.01-2.66"/>
	<path class="st0" d="M27.55,3.04C28.45,2.39,29.56,2,30.76,2c2.17,0,4.04,1.26,4.93,3.09c0.34-0.07,0.69-0.1,1.05-0.1
		c3.03,0,5.48,2.46,5.48,5.48c0,0.64-0.11,1.24-0.31,1.81c2.27,0.67,3.93,2.77,3.93,5.26c0,1.12-0.34,2.16-0.91,3.02
		c0,0-1.58,2.15-4.54,0.64"/>
	<line class="st0" x1="24.72" y1="9.82" x2="24.66" y2="7.48"/>
	<path class="st1" d="M35.69,5.09c0,0-2.68,0.57-2.17,3.67"/>
	<line class="st1" x1="41.92" y1="12.28" x2="38.17" y2="14.57"/>
	<line class="st1" x1="44.93" y1="29.44" x2="42.38" y2="29.09"/>
	<path class="st1" d="M41.92,37.72c0,0-2.58,0.37-3.75-1.38"/>
	<line class="st1" x1="35.69" y1="44.91" x2="34.57" y2="42.36"/>
	<line class="st0" x1="28.73" y1="35.5" x2="31" y2="35.5"/>
	<path class="st0" d="M34.07,37.64c-2.63,0.55-4.13-3.36-1.67-4.76"/>
	<path class="st0" d="M11,17.99c-1.32,1.19-1.24,5.63,2.94,5.03"/>
	<path class="st0" d="M36.64,24.79c-0.41,1.51,0.07,3.37,2.72,3.77"/>
	<path class="st0" d="M17.92,38.87c0.06-1.3-2.28-3.56-4.14-1.08"/>
	<path class="st0" d="M34.96,13.63c0,0,3.56-0.86,2.88,3.19"/>
	<path class="st0" d="M17.92,10.53c0,0-1.95,3.08-4.12-0.05"/>
	<polyline class="st0" points="29.62,15.44 30.21,13.77 22.11,13.77 20.06,24.51 23.38,24.51 22.09,36.23 23.32,36.23 30.52,22.51 
		27.13,22.51 28.32,19.13 	"/>
</g>
</svg>
