<svg width="56" height="56" viewBox="0 0 56 56" fill="none" xmlns="http://www.w3.org/2000/svg">
<g clip-path="url(#clip0_104_41)">
<g clip-path="url(#clip1_104_41)">
<path d="M25.1339 51.7356C24.1039 52.5874 22.8102 53.0552 21.4736 53.0594C20.374 53.0586 19.2969 52.7477 18.3661 52.1622C17.4353 51.5768 16.6885 50.7407 16.2115 49.7499C15.8404 49.8189 15.4638 49.8543 15.0863 49.8558C14.1496 49.8598 13.2257 49.6384 12.3926 49.2103C11.5595 48.7821 10.8417 48.1598 10.2997 47.3958C9.75772 46.6319 9.40753 45.7487 9.27869 44.8209C9.14985 43.8931 9.24614 42.948 9.55944 42.0653C8.68118 41.8054 7.87609 41.3433 7.2088 40.716C6.54151 40.0886 6.03063 39.3135 5.71717 38.4529C5.40371 37.5924 5.2964 36.6703 5.40387 35.7607C5.51135 34.8512 5.8306 33.9795 6.336 33.2157C6.78974 32.5718 7.41226 32.0655 8.13511 31.7526C8.85796 31.4396 9.65314 31.3321 10.4332 31.4418" stroke="white" stroke-width="2" stroke-miterlimit="10" stroke-linecap="square"/>
<path d="M27.2387 9.77123C27.2535 8.44755 26.8165 7.15839 25.9998 6.1166C25.1831 5.07481 24.0355 4.34269 22.7466 4.04109C21.4577 3.73949 20.1044 3.88645 18.9102 4.45771C17.7161 5.02898 16.7525 5.99038 16.1784 7.1832C15.808 7.10874 15.431 7.07106 15.0532 7.07069C14.1157 7.06627 13.191 7.28767 12.3572 7.71618C11.5234 8.1447 10.805 8.76772 10.2629 9.53255C9.72075 10.2974 9.37079 11.1815 9.24258 12.1102C9.11438 13.0389 9.21172 13.9848 9.52635 14.8679C8.31363 15.2254 7.24935 15.9662 6.49286 16.9792C5.73636 17.9922 5.32834 19.223 5.32989 20.4874C5.32744 21.6346 5.66611 22.7566 6.30288 23.7108C5.26803 24.4529 4.5042 25.5129 4.12778 26.7294C3.75136 27.9459 3.783 29.2521 4.21791 30.4489" stroke="white" stroke-width="2" stroke-miterlimit="10" stroke-linecap="square"/>
<path d="M13.65 16.7145C12.485 16.9197 10.9362 16.655 9.38733 14.7686" stroke="white" stroke-width="2" stroke-miterlimit="10"/>
<path d="M14.1663 34.3211C15.6291 34.7116 17.5089 34.4998 18.3958 31.4153" stroke="white" stroke-width="2" stroke-miterlimit="10"/>
<path d="M16.1784 49.6903C15.9492 48.4686 16.0242 47.2092 16.3969 46.0234" stroke="white" stroke-width="2" stroke-miterlimit="10"/>
<path d="M6.30292 23.6777H9.23513" stroke="white" stroke-width="2" stroke-miterlimit="10"/>
<path d="M9.52637 42.0123L12.8292 40.2781" stroke="white" stroke-width="2" stroke-miterlimit="10"/>
<path d="M16.1784 7.14349L17.2772 8.84457" stroke="white" stroke-width="2" stroke-miterlimit="10"/>
<path d="M51.1663 27.0468C51.2759 27.5043 51.3314 27.973 51.3318 28.4434C51.3323 29.3704 51.1123 30.2843 50.6899 31.1094C50.2675 31.9346 49.6549 32.6475 48.9026 33.1892C49.4077 33.9548 49.726 34.8283 49.8318 35.7393C49.9376 36.6504 49.828 37.5736 49.5119 38.4345C49.1957 39.2955 48.6818 40.0701 48.0115 40.6962C47.3412 41.3222 46.5332 41.7821 45.6527 42.0388C45.9628 42.9216 46.0567 43.8658 45.9265 44.7923C45.7964 45.7188 45.4459 46.6007 44.9045 47.3638C44.3632 48.1269 43.6467 48.749 42.8152 49.178C41.9837 49.607 41.0615 49.8304 40.1259 49.8294C39.7484 49.8279 39.3718 49.7924 39.0007 49.7235C38.4214 50.9156 37.455 51.876 36.2593 52.4478C35.0636 53.0197 33.7093 53.1691 32.4177 52.8718C31.1261 52.5744 29.9735 51.8478 29.1483 50.8107C28.323 49.7736 27.8738 48.4873 27.8741 47.1619V47.1619V44.3224" stroke="white" stroke-width="2" stroke-miterlimit="10" stroke-linecap="square"/>
<path d="M30.3232 4.97908C31.0165 4.47651 31.8116 4.13206 32.6525 3.97C33.4933 3.80794 34.3595 3.83219 35.1899 4.04107C36.0204 4.24995 36.795 4.63837 37.4591 5.17896C38.1232 5.71955 38.6607 6.39918 39.0338 7.16997C39.4042 7.09551 39.7811 7.05781 40.159 7.05744C41.0921 7.0628 42.0104 7.29101 42.8375 7.72303C43.6645 8.15506 44.3764 8.77841 44.9139 9.54119C45.4513 10.304 45.7988 11.1841 45.9273 12.1084C46.0558 13.0326 45.9617 13.9741 45.6527 14.8546C46.8643 15.2141 47.9274 15.9553 48.6836 16.9679C49.4398 17.9805 49.8486 19.2103 49.8492 20.4741C49.8517 21.6213 49.513 22.7433 48.8762 23.6976C48.8762 23.6976 47.195 25.9944 44.0179 24.3595" stroke="white" stroke-width="2" stroke-miterlimit="10" stroke-linecap="square"/>
<path d="M27.3049 12.2269L27.2387 9.73151" stroke="white" stroke-width="2" stroke-miterlimit="10" stroke-linecap="square"/>
<path d="M39.0338 7.16998C39.0338 7.16998 36.1744 7.77892 36.7105 11.0884" stroke="white" stroke-width="2" stroke-miterlimit="10"/>
<path d="M45.6792 14.8546L41.6747 17.3036" stroke="white" stroke-width="2" stroke-miterlimit="10"/>
<path d="M48.9027 33.1958L46.1757 32.8185" stroke="white" stroke-width="2" stroke-miterlimit="10"/>
<path d="M45.6527 42.0388C45.6527 42.0388 42.8926 42.4293 41.6483 40.5627" stroke="white" stroke-width="2" stroke-miterlimit="10"/>
<path d="M39.0272 49.7234L37.8358 46.9964" stroke="white" stroke-width="2" stroke-miterlimit="10"/>
<path d="M31.5808 39.6692H34.0166" stroke="white" stroke-width="2" stroke-miterlimit="10" stroke-linecap="square"/>
<path d="M37.293 41.9527C34.4865 42.5418 32.8715 38.3586 35.5059 36.8627" stroke="white" stroke-width="2" stroke-miterlimit="10" stroke-linecap="square"/>
<path d="M12.6439 20.9507C11.2406 22.2281 11.3201 26.9739 15.7879 26.3319" stroke="white" stroke-width="2" stroke-miterlimit="10" stroke-linecap="square"/>
<path d="M40.0399 28.225C39.5964 29.8334 40.1127 31.8323 42.9456 32.2626" stroke="white" stroke-width="2" stroke-miterlimit="10" stroke-linecap="square"/>
<path d="M20.0373 43.2699C20.1034 41.8799 17.6015 39.464 15.6158 42.1116" stroke="white" stroke-width="2" stroke-miterlimit="10" stroke-linecap="square"/>
<path d="M38.2527 16.2976C38.2527 16.2976 42.052 15.3775 41.3306 19.7063" stroke="white" stroke-width="2" stroke-miterlimit="10" stroke-linecap="square"/>
<path d="M20.0307 12.9815C20.0307 12.9815 17.9457 16.2909 15.6224 12.9351" stroke="white" stroke-width="2" stroke-miterlimit="10" stroke-linecap="square"/>
<path d="M32.5405 18.2303L33.1694 16.4432H24.5183L22.3275 27.9271H25.8752L24.4985 40.4569H25.809L33.5003 25.7892H29.8863L31.1506 22.1818" stroke="white" stroke-width="2" stroke-miterlimit="10" stroke-linecap="square"/>
</g>
</g>
<defs>
<clipPath id="clip0_104_41">
<rect width="56" height="56" fill="white"/>
</clipPath>
<clipPath id="clip1_104_41">
<rect width="49.2055" height="50.9" fill="white" transform="translate(3 3)"/>
</clipPath>
</defs>
</svg>
