<svg width="56" height="56" viewBox="0 0 56 56" fill="none" xmlns="http://www.w3.org/2000/svg">
<g clip-path="url(#clip0_104_87)">
<path d="M20.6732 49.7535H34.0746" stroke="white" stroke-width="2" stroke-miterlimit="10" stroke-linecap="square"/>
<path d="M20.6732 46.1201H34.0746" stroke="white" stroke-width="2" stroke-miterlimit="10" stroke-linecap="square"/>
<path d="M21.079 42.4866H35.3856" stroke="white" stroke-width="2" stroke-miterlimit="10" stroke-linecap="square"/>
<path d="M24.603 53.38H30.1368" stroke="white" stroke-width="2" stroke-miterlimit="10" stroke-linecap="square"/>
<path d="M35.5821 38.7759C36.1151 35.5563 37.3488 32.4931 39.1959 29.8028C40.6894 27.5917 41.5327 25.0059 41.6298 22.3394C41.7269 19.673 41.074 17.0327 39.7453 14.7188C38.4167 12.4049 36.4655 10.5101 34.1136 9.24989C31.7617 7.98967 29.1034 7.41453 26.4409 7.58984C23.9023 7.75119 21.4531 8.58856 19.3472 10.0151C17.2412 11.4417 15.5551 13.4056 14.4637 15.7032C13.3723 18.0008 12.9152 20.5485 13.1399 23.0822C13.3646 25.6159 14.2629 28.0434 15.7417 30.1131C18.1617 33.5751 19.4388 37.707 19.3942 41.9307V42.4867H35.3106" stroke="white" stroke-width="2" stroke-miterlimit="10" stroke-linecap="square"/>
<path d="M25.8965 42.2734C25.8965 42.2734 24.8816 28.6974 24.6941 24.8573C24.5842 22.7563 24.4226 19.8924 21.7203 19.8924C21.3043 19.8716 20.8887 19.94 20.5013 20.0929C20.1139 20.2459 19.7637 20.4799 19.4741 20.7792C19.1846 21.0786 18.9624 21.4364 18.8224 21.8287C18.6824 22.2209 18.6278 22.6386 18.6624 23.0536C18.6624 26.1438 22.4767 25.9369 24.6941 25.827H26.8663" stroke="white" stroke-width="2" stroke-miterlimit="10" stroke-linecap="square"/>
<path d="M28.8587 42.2735C28.8587 42.2735 29.8413 29.0142 30.0611 24.8574C30.171 22.7563 30.3262 19.8924 33.035 19.8924C33.4507 19.8715 33.866 19.9399 34.2532 20.0929C34.6403 20.2459 34.9901 20.48 35.2792 20.7795C35.5683 21.079 35.7899 21.4369 35.9291 21.8292C36.0683 22.2214 36.1219 22.639 36.0863 23.0537C36.0863 24.838 35.0197 25.7172 33.3194 25.7624H33.0673" stroke="white" stroke-width="2" stroke-miterlimit="10" stroke-linecap="square"/>
<path d="M27.3704 3.70466V3" stroke="white" stroke-width="2" stroke-miterlimit="10" stroke-linecap="square"/>
<path d="M27.3704 3.70466V3" stroke="white" stroke-width="2" stroke-miterlimit="10" stroke-linecap="square"/>
<path d="M17.0528 7.05968L16.6326 6.48431" stroke="white" stroke-width="2" stroke-miterlimit="10" stroke-linecap="square"/>
<path d="M10.6723 15.839L10 15.6192" stroke="white" stroke-width="2" stroke-miterlimit="10" stroke-linecap="square"/>
<path d="M44.747 26.9134L44.0746 26.6936" stroke="white" stroke-width="2" stroke-miterlimit="10" stroke-linecap="square"/>
<path d="M10.6723 26.6936L10 26.9134" stroke="white" stroke-width="2" stroke-miterlimit="10" stroke-linecap="square"/>
<path d="M44.747 15.6192L44.0746 15.839" stroke="white" stroke-width="2" stroke-miterlimit="10" stroke-linecap="square"/>
<path d="M38.1099 6.48431L37.6961 7.05968" stroke="white" stroke-width="2" stroke-miterlimit="10" stroke-linecap="square"/>
</g>
<defs>
<clipPath id="clip0_104_87">
<rect width="56" height="56" fill="white"/>
</clipPath>
</defs>
</svg>
