<?xml version="1.0" encoding="utf-8"?>
<!-- Generator: Adobe Illustrator 26.0.3, SVG Export Plug-In . SVG Version: 6.00 Build 0)  -->
<svg version="1.1" id="Layer_1" xmlns="http://www.w3.org/2000/svg" xmlns:xlink="http://www.w3.org/1999/xlink" x="0px" y="0px"
	 viewBox="0 0 50 50" style="enable-background:new 0 0 50 50;" xml:space="preserve">
<style type="text/css">
	.st0{fill:none;stroke:#4BF59A;stroke-width:2;stroke-linecap:square;stroke-miterlimit:10;}
</style>
<g id="_x36_">
	<path class="st0" d="M12.98,39.06c0,1.07-0.87,1.94-1.94,1.94H9.05c-1.07,0-1.94-0.87-1.94-1.94v-2.47"/>
	<path class="st0" d="M1.42,20.54l0.48-1.47c0.15-0.47,0.65-0.72,1.13-0.58l1.27,0.42c0.34,0.11,0.61,0.23,0.61,0.23l1.61-4.56
		C7.57,11.25,10.65,9,14.14,9h6.13"/>
	<path class="st0" d="M3.33,23.18c-0.61,0.82-1.37,2.22-1.37,4.11c0,1.88,0.82,4.66,1.43,6.51c0.32,0.96,1.17,1.63,2.18,1.72
		c5.62,0.5,2.46,0.58,14.7,0.58"/>
	<line class="st0" x1="10.28" y1="27.82" x2="7.19" y2="27.48"/>
	<path class="st0" d="M12.98,39.06c0,1.07-0.87,1.94-1.94,1.94H9.05c-1.07,0-1.94-0.87-1.94-1.94v-2.47"/>
	<path class="st0" d="M1.42,20.54l0.48-1.47c0.15-0.47,0.65-0.72,1.13-0.58l1.27,0.42c0.34,0.11,0.61,0.23,0.61,0.23l1.61-4.56
		C7.57,11.25,10.65,9,14.14,9h6.13"/>
	<path class="st0" d="M3.33,23.18c-0.61,0.82-1.37,2.22-1.37,4.11c0,1.88,0.82,4.66,1.43,6.51c0.32,0.96,1.17,1.63,2.18,1.72
		c5.62,0.5,2.46,0.58,14.7,0.58"/>
	<line class="st0" x1="10.28" y1="27.82" x2="7.19" y2="27.48"/>
	<path class="st0" d="M33.41,39.06c0,1.07-0.87,1.94-1.94,1.94h-1.98c-1.07,0-1.94-0.87-1.94-1.94v-2.47"/>
	<path class="st0" d="M20.26,9h6.13c3.48,0,6.56,2.25,7.62,5.57l1.61,4.56c0,0,0.27-0.11,0.61-0.23l1.27-0.42
		c0.47-0.15,0.98,0.11,1.13,0.58l0.48,1.47"/>
	<path class="st0" d="M20.26,36.09c12.24,0,9.08-0.08,14.7-0.58c1.01-0.09,1.86-0.77,2.18-1.72c0.61-1.84,1.43-4.63,1.43-6.51
		c0-1.89-0.77-3.29-1.37-4.11"/>
	<path class="st0" d="M26.16,29.49l-0.49,1.85c-0.12,0.45-0.52,0.77-0.98,0.77h-8.86c-0.46,0-0.87-0.32-0.98-0.77l-0.49-1.85
		c-0.15-0.56,0.28-1.12,0.87-1.12H25.3C25.88,28.37,26.31,28.92,26.16,29.49z"/>
	<path class="st0" d="M32.48,22.49H8.05l1.72-6.57c0.65-2.05,2.53-3.43,4.67-3.43h11.65c2.15,0,4.02,1.38,4.67,3.43L32.48,22.49z"/>
	<line class="st0" x1="30.24" y1="27.82" x2="33.33" y2="27.48"/>
	<path class="st0" d="M40.75,31.05h2.75c1.49,0,2.7-1.21,2.7-2.7v-6.93"/>
	<path class="st0" d="M46.35,20.27h-0.3c-1.23,0-2.23-1-2.23-2.23v-2.53h4.76v2.53C48.58,19.27,47.58,20.27,46.35,20.27z"/>
	<line class="st0" x1="44.61" y1="13.1" x2="44.61" y2="12.79"/>
	<line class="st0" x1="47.8" y1="13.1" x2="47.8" y2="12.79"/>
</g>
</svg>
