<?xml version="1.0" encoding="utf-8"?>
<!-- Generator: Adobe Illustrator 26.0.3, SVG Export Plug-In . SVG Version: 6.00 Build 0)  -->
<svg version="1.1" id="Layer_1" xmlns="http://www.w3.org/2000/svg" xmlns:xlink="http://www.w3.org/1999/xlink" x="0px" y="0px"
	 viewBox="0 0 50 50" style="enable-background:new 0 0 50 50;" xml:space="preserve">
<style type="text/css">
	.st0{fill:none;stroke:#4BF59A;stroke-width:2;stroke-linecap:square;stroke-miterlimit:10;}
</style>
<g id="_x34_">
	<g>
		<path class="st0" d="M22.92,41.43c0.68,0.07,1.37,0.1,2.07,0.1c1.79,0,3.52-0.23,5.17-0.67"/>
		<path class="st0" d="M42.4,31.41c1.66-2.91,2.61-6.28,2.61-9.87c0.01-5.08-1.89-9.73-5.01-13.27c-3.66-4.15-9.01-6.76-14.98-6.77
			c-6,0-11.38,2.63-15.06,6.81c-3.1,3.52-4.98,8.14-4.98,13.19c-0.01,4.1,1.23,7.92,3.34,11.1"/>
		<path class="st0" d="M15.16,30.44c-0.94-2.69-1.53-5.72-1.53-8.94c0.01-11.05,7.32-20.01,11.39-20c3.51,0,9.39,6.64,10.96,15.52"
			/>
		<path class="st0" d="M36.37,21.53c0,4.93-1.41,9.45-3.34,12.94"/>
		<path class="st0" d="M40,8.27c-1.66,0.97-3.68,1.86-5.94,2.54c-2.72,0.82-5.79,1.34-9.05,1.34c-3.27,0-6.36-0.51-9.08-1.32
			c-2.28-0.67-4.29-1.55-5.97-2.52c3.67-4.17,9.06-6.81,15.06-6.8C30.99,1.51,36.34,4.13,40,8.27z"/>
		<path class="st0" d="M16.13,33.45c2.68-0.83,5.78-1.29,8.87-1.29c1.82,0,3.59,0.17,5.27,0.46"/>
		<polyline class="st0" points="25.02,2.02 25.02,3.08 25.01,12.15 25.01,21.52 24.99,32.16 24.99,41.12 		"/>
		<line class="st0" x1="9.08" y1="21.5" x2="44.15" y2="21.54"/>
	</g>
	<g>
		<path class="st0" d="M17.06,45.45c-2.8,2.8-6.24,3.59-9.05,0.79c-2.8-2.8-0.85-6.57-2.93-12.77c5.85-1.57,10.34-0.42,13.14,2.39
			c1.9,1.9,1.98,4.35,0.96,6.6"/>
		<path class="st0" d="M11.03,38.95c0,0,6.06,8.39,10.39,7.4"/>
	</g>
	<g>
		<path class="st0" d="M35.23,47.27c2.22,1.14,4.58,1,6.61-1.04c2.8-2.8,0.85-6.57,2.93-12.77c-5.85-1.57-10.34-0.42-13.14,2.39
			c-2.05,2.05-1.98,4.72-0.7,7.11l0.98,1.3"/>
		<path class="st0" d="M38.01,38.95c0,0-6.74,6.14-7.77,9.55"/>
	</g>
</g>
</svg>
