<?xml version="1.0" encoding="utf-8"?>
<!-- Generator: Adobe Illustrator 26.0.3, SVG Export Plug-In . SVG Version: 6.00 Build 0)  -->
<svg version="1.1" id="Layer_1" xmlns="http://www.w3.org/2000/svg" xmlns:xlink="http://www.w3.org/1999/xlink" x="0px" y="0px"
	 viewBox="0 0 50 50" style="enable-background:new 0 0 50 50;" xml:space="preserve">
<style type="text/css">
	.st0{fill:none;stroke:#4BF59A;stroke-width:2;stroke-linecap:square;stroke-miterlimit:10;}
</style>
<g id="_x31_8">
	<polyline class="st0" points="27.3,29.82 27.3,44.12 22.7,44.12 	"/>
	<line class="st0" x1="27.3" y1="19.35" x2="27.3" y2="21.72"/>
	<line class="st0" x1="22.7" y1="21.72" x2="22.7" y2="16.42"/>
	<polyline class="st0" points="22.7,8.32 22.7,2.5 27.31,2.5 27.31,5.22 	"/>
	<line class="st0" x1="22.7" y1="40.85" x2="22.7" y2="29.82"/>
	<rect x="18.68" y="44.12" class="st0" width="12.64" height="3.38"/>
	<polygon class="st0" points="43.77,16.42 15.54,16.42 15.54,8.32 43.77,8.32 47.1,12.37 	"/>
	<polygon class="st0" points="6.23,21.72 34.46,21.72 34.46,29.82 6.23,29.82 2.9,25.77 	"/>
	<line class="st0" x1="10.43" y1="25.77" x2="28.51" y2="25.77"/>
	<line class="st0" x1="39.57" y1="12.37" x2="21.49" y2="12.37"/>
</g>
</svg>
