<svg width="164" height="32" viewBox="0 0 164 32" fill="none" xmlns="http://www.w3.org/2000/svg">
<g clip-path="url(#clip0_4_4)">
<path d="M26.6213 2.21928L25.3794 8.59961C23.9578 7.87626 22.4625 7.31111 20.9199 6.91411C19.5149 6.5511 18.0708 6.36475 16.6204 6.35929C14.7003 6.35929 13.2033 6.66129 12.1296 7.26526C11.0582 7.87274 10.519 8.71198 10.519 9.79C10.5026 10.0938 10.557 10.3972 10.6778 10.6759C10.7987 10.9546 10.9826 11.2008 11.2148 11.3947C11.6878 11.7775 12.6653 12.1532 14.1472 12.5149L17.3057 13.3015C19.9448 13.9757 21.8811 14.9483 23.1149 16.2195C24.3486 17.4907 24.9655 19.1364 24.9655 21.1566C24.9655 24.434 23.7352 27.0582 21.2747 29.0293C18.8142 31.0004 15.5119 31.9895 11.3678 31.9965C9.43155 31.9975 7.49945 31.8153 5.59687 31.4522C3.6814 31.0889 1.80315 30.5482 -0.0140381 29.837L1.20694 23.2775C2.83998 24.2544 4.57916 25.038 6.39 25.6127C7.99379 26.1119 9.66169 26.3698 11.34 26.3782C13.1001 26.3782 14.5298 26.0153 15.629 25.2896C16.7283 24.5639 17.279 23.6346 17.2814 22.5015C17.2985 22.1759 17.2404 21.8506 17.1119 21.5514C16.9833 21.2522 16.7877 20.9873 16.5404 20.7774C16.0465 20.3654 14.967 19.944 13.3019 19.5133L10.1712 18.7267C7.85215 18.1508 6.12562 17.2355 4.99161 15.9807C3.8576 14.726 3.29059 13.1048 3.29059 11.1173C3.29059 7.98276 4.48026 5.46855 6.85959 3.5747C9.23892 1.68085 12.4427 0.73509 16.4708 0.737431C18.1346 0.741786 19.7959 0.867357 21.4417 1.11316C23.19 1.36922 24.9201 1.73869 26.6213 2.21928Z" fill="white"/>
<path d="M53.2045 20.9529L52.9506 22.1012H36.2048C36.2048 22.182 36.2048 22.3014 36.1874 22.4523C36.17 22.6033 36.1666 22.7227 36.1666 22.8035C36.1666 24.2713 36.6025 25.368 37.4745 26.0937C38.3465 26.8194 39.6567 27.1835 41.4053 27.1858C43.0188 27.1667 44.6227 26.9305 46.1744 26.4835C47.9904 25.9728 49.7548 25.2909 51.4444 24.4469L50.3452 30.0652C48.6503 30.697 46.9045 31.1799 45.1273 31.5084C43.3883 31.8257 41.6245 31.9843 39.8573 31.9825C36.3648 31.9825 33.6689 31.169 31.7697 29.542C29.8704 27.915 28.9207 25.6127 28.9207 22.635C28.9194 20.9217 29.2271 19.2226 29.8286 17.6206C30.4426 15.9889 31.3402 14.4811 32.4793 13.168C33.8208 11.5766 35.5074 10.3186 37.4084 9.49153C39.4241 8.6385 41.5921 8.21299 43.7776 8.24145C46.804 8.24145 49.2077 9.06079 50.9887 10.6995C52.7697 12.3382 53.6602 14.5317 53.6602 17.28C53.6575 17.8506 53.6203 18.4205 53.5489 18.9865C53.4816 19.5835 53.3668 20.2389 53.2045 20.9529ZM46.4457 17.6416C46.4868 17.4658 46.517 17.2875 46.5361 17.1079C46.5568 16.9307 46.5672 16.7525 46.5674 16.5742C46.5911 16.1032 46.5181 15.6323 46.3529 15.1912C46.1876 14.75 45.9338 14.3482 45.6074 14.0108C45.2584 13.6851 44.8484 13.4332 44.4016 13.2697C43.9547 13.1063 43.48 13.0347 43.0054 13.0592C41.7191 13.0234 40.4595 13.4336 39.4364 14.2215C38.3738 15.1173 37.5919 16.3055 37.1858 17.6416H46.4457Z" fill="white"/>
<path d="M80.212 17.6416L77.5509 31.4136H70.3712L72.6323 19.6221C72.7923 18.8531 72.914 18.2175 73.001 17.6733C73.0763 17.2571 73.1193 16.8356 73.1297 16.4126C73.1543 16.0493 73.1053 15.6848 72.9857 15.3413C72.8661 14.9978 72.6784 14.6824 72.434 14.4146C72.1627 14.1685 71.8453 13.9795 71.5006 13.8589C71.156 13.7383 70.7909 13.6885 70.4268 13.7123C69.701 13.707 68.9827 13.8613 68.3219 14.1645C67.6612 14.4677 67.0737 14.9125 66.6004 15.468C65.543 16.6385 64.8067 18.2503 64.3916 20.3033L62.2314 31.4277H55.0377L59.3964 8.81381H66.597L65.9395 12.1251C67.0944 10.9368 68.4398 9.95376 69.919 9.21764C71.2232 8.59207 72.6493 8.26816 74.0933 8.26954C76.1595 8.26954 77.7527 8.815 78.8728 9.90589C79.9929 10.9968 80.5529 12.5313 80.5529 14.5094C80.551 14.9884 80.5208 15.4668 80.4625 15.9421C80.4312 16.4513 80.3303 17.0236 80.212 17.6416Z" fill="white"/>
<path d="M97.1978 2.38074L95.9803 8.79969H103.285L102.266 13.9686H94.9611L93.1209 23.5373C93.0688 23.755 93.034 23.9341 93.0131 24.0851C92.9928 24.2247 92.9824 24.3654 92.9818 24.5065C92.9593 24.7635 93.004 25.022 93.1114 25.2562C93.2188 25.4903 93.3853 25.6919 93.594 25.8408C94.001 26.1077 94.6828 26.2447 95.6429 26.2447H99.3441L98.3214 31.4135H92.3035C90.1421 31.4135 88.4956 30.9559 87.3639 30.0406C86.2322 29.1252 85.6606 27.8061 85.649 26.0831C85.649 25.7039 85.6699 25.3036 85.7081 24.8717C85.7464 24.4398 85.809 24.0044 85.889 23.5584L87.7361 13.9686H84.2193L85.2003 8.79969H88.7588L90.0007 2.38074H97.1978Z" fill="white"/>
<path d="M107.167 8.79974H114.368L109.999 31.4136H102.819L107.167 8.79974ZM108.847 0H116.048L114.907 5.89225H107.686L108.847 0Z" fill="white"/>
<path d="M138.036 9.50558L136.992 15.1239C135.655 14.4737 134.257 13.9596 132.818 13.5894C131.532 13.2513 130.21 13.0744 128.881 13.0627C127.464 13.0627 126.374 13.2476 125.611 13.6175C124.842 13.9897 124.459 14.5164 124.459 15.2047C124.464 15.4108 124.527 15.6114 124.64 15.783C124.753 15.9545 124.913 16.0901 125.099 16.1738C125.903 16.5372 126.749 16.7945 127.618 16.9393L128.919 17.1816C131.813 17.802 133.84 18.6003 134.999 19.5765C136.159 20.5526 136.739 21.9081 136.739 23.6427C136.739 26.2693 135.718 28.3189 133.677 29.7913C131.637 31.2638 128.784 32 125.12 32C123.547 32.001 121.976 31.8836 120.421 31.6489C118.756 31.3856 117.111 31.0114 115.495 30.5287L116.577 24.8577C117.874 25.6264 119.271 26.2102 120.727 26.5924C122.203 26.983 123.723 27.1801 125.249 27.1788C126.756 27.1788 127.889 26.9974 128.647 26.6345C129.406 26.2716 129.786 25.7403 129.788 25.0403C129.794 24.8109 129.737 24.5843 129.624 24.3851C129.511 24.1858 129.347 24.0214 129.148 23.9096C128.719 23.6381 127.839 23.3618 126.508 23.0809L125.207 22.8386C122.656 22.3025 120.83 21.5078 119.728 20.4543C118.636 19.4009 118.09 17.9507 118.09 16.0966C118.09 13.5777 119.033 11.6394 120.918 10.2816C122.803 8.92385 125.501 8.2438 129.009 8.24146C130.522 8.24116 132.033 8.34556 133.531 8.55396C135.051 8.77498 136.556 9.09282 138.036 9.50558Z" fill="white"/>
<path d="M163.642 18.5124L161.134 31.4136H153.971L154.573 28.0601C153.541 29.2927 152.276 30.305 150.851 31.0378C149.523 31.6822 148.067 32.0102 146.593 31.9964C144.471 31.9964 142.788 31.4416 141.542 30.332C140.297 29.2224 139.674 27.7253 139.674 25.8409C139.674 22.9615 140.777 20.7574 142.983 19.2288C145.188 17.7001 148.371 16.9358 152.531 16.9358H156.751L156.834 16.3704C156.872 16.1843 156.897 16.0474 156.904 15.9666C156.911 15.8858 156.904 15.8121 156.904 15.7454C156.913 15.324 156.799 14.9092 156.577 14.5522C156.356 14.1953 156.035 13.9118 155.655 13.7368C154.825 13.2873 153.589 13.0614 151.947 13.0591C150.501 13.0563 149.059 13.2129 147.647 13.5261C146.259 13.8399 144.91 14.311 143.626 14.9307L144.704 9.42123C146.217 9.04155 147.75 8.75425 149.296 8.56092C150.912 8.36418 152.538 8.26685 154.166 8.26946C157.485 8.26946 159.951 8.84536 161.565 9.99712C163.179 11.1489 163.991 12.9046 164 15.2643C163.997 15.7677 163.967 16.2706 163.91 16.7707C163.854 17.2904 163.763 17.8874 163.642 18.5124ZM152.462 21.2373C150.678 21.2373 149.329 21.5159 148.413 22.073C147.981 22.3189 147.625 22.68 147.383 23.1167C147.141 23.5533 147.023 24.0487 147.042 24.5486C147.025 24.9124 147.088 25.2754 147.229 25.6109C147.369 25.9464 147.582 26.2458 147.853 26.487C148.486 26.9875 149.279 27.2373 150.082 27.1892C151.434 27.2322 152.75 26.7524 153.763 25.8479C154.751 24.9536 155.41 23.6918 155.742 22.0625L155.902 21.2338L152.462 21.2373Z" fill="white"/>
</g>
<defs>
<clipPath id="clip0_4_4">
<rect width="164" height="32" fill="white"/>
</clipPath>
</defs>
</svg>
