<?xml version="1.0" encoding="utf-8"?>
<!-- Generator: Adobe Illustrator 26.0.3, SVG Export Plug-In . SVG Version: 6.00 Build 0)  -->
<svg version="1.1" id="Layer_1" xmlns="http://www.w3.org/2000/svg" xmlns:xlink="http://www.w3.org/1999/xlink" x="0px" y="0px"
	 viewBox="0 0 50 50" style="enable-background:new 0 0 50 50;" xml:space="preserve">
<style type="text/css">
	.st0{fill:none;stroke:#4BF59A;stroke-width:2;stroke-linecap:square;stroke-miterlimit:10;}
</style>
<g id="_x38_">
	<polyline class="st0" points="14.07,21.78 14.07,46.5 2.75,46.5 2.75,21.78 10.95,21.78 	"/>
	<polyline class="st0" points="35.93,21.78 35.93,46.5 47.25,46.5 47.25,21.78 39.05,21.78 	"/>
	<polyline class="st0" points="32.45,10.86 35.93,10.86 35.93,46.5 14.07,46.5 14.07,10.86 17.55,10.86 	"/>
	<line class="st0" x1="6.6" y1="26.49" x2="10.22" y2="26.49"/>
	<line class="st0" x1="6.6" y1="30.68" x2="10.22" y2="30.68"/>
	<line class="st0" x1="6.6" y1="34.87" x2="10.22" y2="34.87"/>
	<line class="st0" x1="6.6" y1="39.07" x2="10.22" y2="39.07"/>
	<line class="st0" x1="39.78" y1="26.49" x2="43.4" y2="26.49"/>
	<line class="st0" x1="18.43" y1="19.1" x2="20.06" y2="19.1"/>
	<line class="st0" x1="18.43" y1="22.85" x2="20.06" y2="22.85"/>
	<line class="st0" x1="18.43" y1="26.6" x2="20.06" y2="26.6"/>
	<line class="st0" x1="18.43" y1="30.35" x2="20.06" y2="30.35"/>
	<line class="st0" x1="18.43" y1="34.1" x2="20.06" y2="34.1"/>
	<line class="st0" x1="24.19" y1="19.1" x2="25.81" y2="19.1"/>
	<line class="st0" x1="24.19" y1="22.85" x2="25.81" y2="22.85"/>
	<line class="st0" x1="24.19" y1="26.6" x2="25.81" y2="26.6"/>
	<line class="st0" x1="24.19" y1="30.35" x2="25.81" y2="30.35"/>
	<line class="st0" x1="24.19" y1="34.1" x2="25.81" y2="34.1"/>
	<line class="st0" x1="29.94" y1="19.1" x2="31.57" y2="19.1"/>
	<line class="st0" x1="29.94" y1="22.85" x2="31.57" y2="22.85"/>
	<line class="st0" x1="29.94" y1="26.6" x2="31.57" y2="26.6"/>
	<line class="st0" x1="29.94" y1="30.35" x2="31.57" y2="30.35"/>
	<line class="st0" x1="29.94" y1="34.1" x2="31.57" y2="34.1"/>
	<line class="st0" x1="39.78" y1="30.68" x2="43.4" y2="30.68"/>
	<line class="st0" x1="39.78" y1="34.87" x2="43.4" y2="34.87"/>
	<line class="st0" x1="39.78" y1="39.07" x2="43.4" y2="39.07"/>
	<polyline class="st0" points="27.98,43.84 27.98,38.84 22.02,38.84 22.02,43.84 	"/>
	<rect x="20.47" y="6.33" class="st0" width="9.05" height="9.05"/>
	<line class="st0" x1="25" y1="6.33" x2="25" y2="3.5"/>
	<line class="st0" x1="8.41" y1="21.78" x2="8.41" y2="19.35"/>
	<line class="st0" x1="41.59" y1="21.78" x2="41.59" y2="19.35"/>
</g>
</svg>
