<?xml version="1.0" encoding="utf-8"?>
<!-- Generator: Adobe Illustrator 26.0.3, SVG Export Plug-In . SVG Version: 6.00 Build 0)  -->
<svg version="1.1" id="Layer_1" xmlns="http://www.w3.org/2000/svg" xmlns:xlink="http://www.w3.org/1999/xlink" x="0px" y="0px"
	 viewBox="0 0 50 50" style="enable-background:new 0 0 50 50;" xml:space="preserve">
<style type="text/css">
	.st0{fill:none;stroke:#4BF59A;stroke-width:2;stroke-linecap:square;stroke-miterlimit:10;}
</style>
<g id="_x38_">
	<g>
		<polyline class="st0" points="7,44 5.36,44.42 7.49,36.07 35.83,7.72 		"/>
		<polyline class="st0" points="42.06,13.95 13.72,42.29 10.19,43.19 		"/>
		<line class="st0" x1="37.94" y1="9.83" x2="42.06" y2="13.95"/>
		<path class="st0" d="M42.06,13.95l1.27-1.27c0.98-0.98,0.98-2.56,0-3.54l-2.68-2.68c-0.98-0.98-2.56-0.98-3.54,0l-1.27,1.27"/>
		<line class="st0" x1="38.95" y1="10.84" x2="13.52" y2="36.26"/>
		<line class="st0" x1="8.33" y1="36.7" x2="11.21" y2="39.58"/>
	</g>
	<line class="st0" x1="35.82" y1="44.79" x2="23.65" y2="32.61"/>
	<polyline class="st0" points="35.02,26.05 48,39.04 39.03,48 	"/>
	<polyline class="st0" points="14.37,23.33 2,10.97 10.97,2 26.04,17.08 	"/>
	<line class="st0" x1="43.85" y1="35.18" x2="42.21" y2="36.82"/>
	<line class="st0" x1="40.23" y1="31.55" x2="38.58" y2="33.19"/>
	<line class="st0" x1="36.6" y1="27.92" x2="34.95" y2="29.56"/>
	<line class="st0" x1="22.08" y1="13.41" x2="20.44" y2="15.05"/>
	<line class="st0" x1="18.45" y1="9.78" x2="15.8" y2="12.43"/>
	<line class="st0" x1="14.82" y1="6.15" x2="13.18" y2="7.79"/>
	<line class="st0" x1="40.23" y1="31.55" x2="37.57" y2="34.2"/>
</g>
</svg>
