<svg width="56" height="56" viewBox="0 0 56 56" fill="none" xmlns="http://www.w3.org/2000/svg">
<g clip-path="url(#clip0_104_88)">
<path d="M9.28998 49.52L7.50998 49.97L9.82998 40.89L40.63 10.08" stroke="white" stroke-width="2" stroke-miterlimit="10" stroke-linecap="square"/>
<path d="M47.4 16.85L16.59 47.65L12.76 48.63" stroke="white" stroke-width="2" stroke-miterlimit="10" stroke-linecap="square"/>
<path d="M42.92 12.37L47.4 16.85" stroke="white" stroke-width="2" stroke-miterlimit="10" stroke-linecap="square"/>
<path d="M47.4 16.85L48.78 15.47C49.2887 14.9584 49.5742 14.2664 49.5742 13.545C49.5742 12.8236 49.2887 12.1315 48.78 11.62L45.87 8.69995C45.3584 8.19127 44.6664 7.90576 43.945 7.90576C43.2236 7.90576 42.5315 8.19127 42.02 8.69995L40.63 10.09" stroke="white" stroke-width="2" stroke-miterlimit="10" stroke-linecap="square"/>
<path d="M44.02 13.47L16.38 41.1" stroke="white" stroke-width="2" stroke-miterlimit="10" stroke-linecap="square"/>
<path d="M10.73 41.57L13.86 44.71" stroke="white" stroke-width="2" stroke-miterlimit="10" stroke-linecap="square"/>
<path d="M40.62 50.37L27.39 37.14" stroke="white" stroke-width="2" stroke-miterlimit="10" stroke-linecap="square"/>
<path d="M39.75 30.01L53.85 44.12L44.11 53.86" stroke="white" stroke-width="2" stroke-miterlimit="10" stroke-linecap="square"/>
<path d="M17.3 27.05L3.85999 13.61L13.6 3.85999L29.99 20.25" stroke="white" stroke-width="2" stroke-miterlimit="10" stroke-linecap="square"/>
<path d="M49.35 39.92L47.57 41.71" stroke="white" stroke-width="2" stroke-miterlimit="10" stroke-linecap="square"/>
<path d="M45.41 35.98L43.62 37.77" stroke="white" stroke-width="2" stroke-miterlimit="10" stroke-linecap="square"/>
<path d="M41.46 32.04L39.68 33.82" stroke="white" stroke-width="2" stroke-miterlimit="10" stroke-linecap="square"/>
<path d="M25.69 16.26L23.9 18.04" stroke="white" stroke-width="2" stroke-miterlimit="10" stroke-linecap="square"/>
<path d="M21.74 12.31L18.86 15.2" stroke="white" stroke-width="2" stroke-miterlimit="10" stroke-linecap="square"/>
<path d="M17.8 8.37L16.01 10.16" stroke="white" stroke-width="2" stroke-miterlimit="10" stroke-linecap="square"/>
<path d="M45.41 35.98L42.52 38.86" stroke="white" stroke-width="2" stroke-miterlimit="10" stroke-linecap="square"/>
</g>
<defs>
<clipPath id="clip0_104_88">
<rect width="53.72" height="53.72" fill="white" transform="translate(2 2)"/>
</clipPath>
</defs>
</svg>
